<?xml version="1.0" encoding="UTF-8"?>
<svg width="20px" height="38px" viewBox="0 0 20 38" version="1.1" xmlns="http://www.w3.org/2000/svg" xmlns:xlink="http://www.w3.org/1999/xlink">
    <!-- Generator: Sketch 40.1 (33804) - http://www.bohemiancoding.com/sketch -->
    <title>chevron-left</title>
    <desc>Created with Sketch.</desc>
    <defs></defs>
    <g id="Page-1" stroke="none" stroke-width="1" fill="none" fill-rule="evenodd" opacity="0.5">
        <path d="M19.0039062,37.9882812 C19.1210943,37.9882812 19.2415358,37.965495 19.3652344,37.9199219 C19.4889329,37.8743487 19.6028641,37.7994797 19.7070312,37.6953125 C19.9023447,37.499999 20,37.2656264 20,36.9921875 C20,36.7187486 19.9023447,36.484376 19.7070312,36.2890625 L2.40234375,19.0039062 L19.7070312,1.69921875 C19.9023447,1.50390527 20,1.26953262 20,0.99609375 C20,0.722654883 19.9023447,0.488282227 19.7070312,0.29296875 C19.5117178,0.0976552734 19.2740899,0 18.9941406,0 C18.7141913,0 18.4765635,0.0976552734 18.28125,0.29296875 L0.29296875,18.28125 C0.0976552734,18.4765635 0,18.7141913 0,18.9941406 C0,19.2740899 0.0976552734,19.5117178 0.29296875,19.7070312 L18.28125,37.6953125 C18.3854172,37.7994797 18.4993483,37.8743487 18.6230469,37.9199219 C18.7467454,37.965495 18.8736973,37.9882812 19.0039062,37.9882812 L19.0039062,37.9882812 Z" id="chevron-left" fill="#FFFFFF"></path>
    </g>
</svg>