<?xml version="1.0" encoding="UTF-8"?>
<svg width="20px" height="38px" viewBox="0 0 20 38" version="1.1" xmlns="http://www.w3.org/2000/svg" xmlns:xlink="http://www.w3.org/1999/xlink">
    <!-- Generator: Sketch 40.1 (33804) - http://www.bohemiancoding.com/sketch -->
    <title>chevron-left</title>
    <desc>Created with Sketch.</desc>
    <defs></defs>
    <g id="Page-1" stroke="none" stroke-width="1" fill="none" fill-rule="evenodd" opacity="0.5">
        <path d="M8.00390625,37.9882812 C8.12109434,37.9882812 8.24153584,37.965495 8.36523438,37.9199219 C8.48893291,37.8743487 8.60286406,37.7994797 8.70703125,37.6953125 C8.90234473,37.499999 9,37.2656264 9,36.9921875 C9,36.7187486 8.90234473,36.484376 8.70703125,36.2890625 L-8.59765625,19.0039062 L8.70703125,1.69921875 C8.90234473,1.50390527 9,1.26953262 9,0.99609375 C9,0.722654883 8.90234473,0.488282227 8.70703125,0.29296875 C8.51171777,0.0976552734 8.27408994,0 7.99414062,0 C7.71419131,0 7.47656348,0.0976552734 7.28125,0.29296875 L-10.7070312,18.28125 C-10.9023447,18.4765635 -11,18.7141913 -11,18.9941406 C-11,19.2740899 -10.9023447,19.5117178 -10.7070312,19.7070312 L7.28125,37.6953125 C7.38541719,37.7994797 7.49934834,37.8743487 7.62304688,37.9199219 C7.74674541,37.965495 7.87369727,37.9882812 8.00390625,37.9882812 L8.00390625,37.9882812 Z" id="chevron-left" fill="#FFFFFF" transform="translate(4.498047, 18.994141) rotate(-180.000000) translate(-4.498047, -18.994141) "></path>
    </g>
</svg>