<?xml version="1.0" encoding="UTF-8"?>
<svg width="32px" height="26px" viewBox="0 0 32 26" version="1.1" xmlns="http://www.w3.org/2000/svg" xmlns:xlink="http://www.w3.org/1999/xlink">
    <!-- Generator: Sketch 40.1 (33804) - http://www.bohemiancoding.com/sketch -->
    <title>Twitter Icon</title>
    <desc>Created with Sketch.</desc>
    <defs></defs>
    <g id="Page-1" stroke="none" stroke-width="1" fill="none" fill-rule="evenodd">
        <g id="Homepage-(Quote-1)" transform="translate(-120.000000, -1194.000000)" fill="#4099FF">
            <g id="QUOTE-SECTION" transform="translate(-287.000000, 719.000000)">
                <path d="M439,478.077086 C437.822142,478.599758 436.556502,478.952136 435.229283,479.110641 C436.584016,478.298468 437.625614,477.012092 438.115624,475.479444 C436.847363,476.231358 435.442843,476.77761 433.94661,477.07235 C432.749099,475.796453 431.043236,475 429.155257,475 C425.52866,475 422.589912,477.938231 422.589912,481.562878 C422.589912,482.07769 422.64756,482.579403 422.760236,483.058847 C417.303308,482.785067 412.466099,480.173015 409.227317,476.201229 C408.662627,477.170597 408.339011,478.297158 408.339011,479.501008 C408.339011,481.777711 409.498526,483.787183 411.259417,484.964833 C410.183754,484.930774 409.170979,484.634724 408.286603,484.143491 C408.285293,484.171 408.285293,484.198509 408.285293,484.226018 C408.285293,487.40659 410.549296,490.05925 413.552244,490.66183 C413.000655,490.812475 412.421553,490.892382 411.822797,490.892382 C411.399607,490.892382 410.988208,490.850464 410.587291,490.774486 C411.42188,493.382608 413.847036,495.280734 416.720275,495.333132 C414.473305,497.093712 411.641991,498.142987 408.565673,498.142987 C408.036358,498.142987 407.513593,498.112858 407,498.05129 C409.905994,499.914047 413.357026,501 417.063544,501 C429.139535,501 435.742876,490.998489 435.742876,482.325272 C435.742876,482.039702 435.736325,481.756751 435.724533,481.475111 C437.007206,480.550282 438.119555,479.393591 439,478.077086" id="Twitter-Icon"></path>
            </g>
        </g>
    </g>
</svg>